<?xml version="1.0" encoding="utf-8"?>
<!-- Generator: Adobe Illustrator 21.1.0, SVG Export Plug-In . SVG Version: 6.00 Build 0)  -->
<svg version="1.1" id="Layer_1" xmlns="http://www.w3.org/2000/svg" xmlns:xlink="http://www.w3.org/1999/xlink" x="0px" y="0px"
	 viewBox="0 0 777.6 155.2" style="enable-background:new 0 0 777.6 155.2;" xml:space="preserve">
<style type="text/css">
	.st0{fill:#3A3A3A;}
	.st1{fill:#00AD93;}
	.st2{fill:#474847;}
</style>
<g>
	<path class="st0" d="M237.1,74.6c0,5.5-1.9,9.9-5.7,13c-3.8,3.1-9,4.7-15.5,4.7c-7.1,0-12.5-1-16.4-2.9v-7.1c2.5,1.1,5.1,2,8,2.6
		c2.9,0.6,5.8,0.9,8.6,0.9c4.6,0,8.1-0.9,10.5-2.8c2.3-1.9,3.5-4.4,3.5-7.7c0-2.2-0.4-4-1.2-5.4c-0.8-1.4-2.2-2.7-4.2-3.9
		c-2-1.2-4.9-2.5-8.9-4c-5.6-2.1-9.5-4.6-11.9-7.5c-2.4-2.9-3.6-6.6-3.6-11.2c0-4.9,1.7-8.7,5.2-11.6c3.5-2.9,8-4.3,13.7-4.3
		c5.9,0,11.4,1.1,16.4,3.4l-2.2,6.4c-4.9-2.2-9.7-3.3-14.4-3.3c-3.7,0-6.6,0.8-8.6,2.5c-2.1,1.7-3.1,4-3.1,6.9c0,2.2,0.4,4,1.1,5.4
		c0.8,1.4,2.1,2.7,3.9,3.8c1.8,1.2,4.6,2.4,8.3,3.9c6.3,2.4,10.6,4.9,13,7.6C236,66.8,237.1,70.3,237.1,74.6z"/>
	<path class="st0" d="M282.9,67.7c0,7.7-1.8,13.7-5.5,18c-3.7,4.3-8.8,6.5-15.3,6.5c-4,0-7.6-1-10.7-3s-5.5-4.8-7.2-8.5
		c-1.7-3.7-2.5-8-2.5-13c0-7.7,1.8-13.7,5.5-18c3.7-4.3,8.7-6.4,15.2-6.4c6.3,0,11.3,2.2,15,6.6C281,54.2,282.9,60.2,282.9,67.7z
		 M248.7,67.7c0,6,1.1,10.6,3.4,13.8c2.3,3.2,5.7,4.7,10.1,4.7c4.4,0,7.8-1.6,10.1-4.7c2.3-3.1,3.5-7.7,3.5-13.8
		c0-6-1.2-10.6-3.5-13.7c-2.3-3.1-5.7-4.7-10.2-4.7c-4.4,0-7.8,1.5-10.1,4.6C249.8,57,248.7,61.6,248.7,67.7z"/>
	<path class="st0" d="M297.4,91.3h-6.8v-67h6.8V91.3z"/>
	<path class="st0" d="M335.2,91.3l-1.4-6.7h-0.3c-2.2,3-4.5,5-6.7,6c-2.2,1-5,1.6-8.3,1.6c-4.4,0-7.9-1.2-10.5-3.6
		c-2.5-2.4-3.8-5.8-3.8-10.3c0-9.5,7.2-14.5,21.7-15l7.6-0.3v-2.9c0-3.7-0.8-6.4-2.3-8.2c-1.5-1.8-3.9-2.6-7.3-2.6
		c-3.7,0-8,1.2-12.7,3.6l-2.1-5.5c2.2-1.3,4.6-2.3,7.3-3c2.6-0.7,5.3-1.1,7.9-1.1c5.3,0,9.3,1.2,11.9,3.7c2.6,2.5,3.9,6.5,3.9,12
		v32.2H335.2z M319.8,86.3c4.2,0,7.5-1.2,10-3.7c2.4-2.4,3.6-5.9,3.6-10.3v-4.3l-6.8,0.3c-5.4,0.2-9.3,1.1-11.7,2.6
		c-2.4,1.6-3.6,4-3.6,7.3c0,2.6,0.7,4.6,2.2,5.9C315.1,85.6,317.2,86.3,319.8,86.3z"/>
	<path class="st0" d="M367.9,92.2c-6.5,0-11.5-2.1-15.1-6.3c-3.6-4.2-5.3-10.2-5.3-17.9c0-7.9,1.8-14,5.4-18.3s8.8-6.5,15.4-6.5
		c2.2,0,4.3,0.2,6.5,0.7c2.2,0.5,3.8,1.1,5.1,1.7l-2.1,6.1c-1.5-0.6-3.1-1.2-4.9-1.6c-1.8-0.4-3.3-0.6-4.7-0.6
		c-9.1,0-13.7,6.1-13.7,18.3c0,5.8,1.1,10.3,3.3,13.4c2.2,3.1,5.5,4.7,9.9,4.7c3.7,0,7.6-0.8,11.5-2.5v6.3
		C376.3,91.4,372.5,92.2,367.9,92.2z"/>
	<path class="st0" d="M404.7,92.2c-6.6,0-11.9-2.1-15.7-6.4c-3.8-4.2-5.7-10.2-5.7-17.7c0-7.6,1.8-13.7,5.3-18.1
		c3.6-4.5,8.3-6.7,14.3-6.7c5.6,0,10.1,1.9,13.3,5.8c3.3,3.9,4.9,9,4.9,15.4V69h-30.9c0.1,5.5,1.5,9.8,4,12.6
		c2.5,2.9,6.1,4.3,10.7,4.3c4.8,0,9.6-1.1,14.3-3.2v6.4c-2.4,1.1-4.7,1.9-6.8,2.3C410.3,91.9,407.7,92.2,404.7,92.2z M402.8,49.2
		c-3.6,0-6.5,1.2-8.6,3.7c-2.1,2.5-3.4,5.9-3.8,10.3h23.4c0-4.5-1-8-2.9-10.4C409.1,50.4,406.4,49.2,402.8,49.2z"/>
	<path class="st0" d="M483.4,46.4c0,6.1-2,10.8-5.9,14c-3.9,3.2-9.5,4.9-16.7,4.9h-9.2v26h-4.2v-63H462
		C476.3,28.4,483.4,34.4,483.4,46.4z M451.6,61.5h8.2c6.7,0,11.6-1.2,14.6-3.5c3-2.3,4.5-6.1,4.5-11.4c0-4.9-1.4-8.4-4.3-10.8
		c-2.8-2.3-7.2-3.5-13.2-3.5h-9.9V61.5z"/>
	<path class="st0" d="M494.7,44.5v30.3c0,4.7,0.9,8.1,2.8,10.3c1.9,2.1,4.8,3.2,8.8,3.2c5.3,0,9.2-1.4,11.7-4.2
		c2.5-2.8,3.7-7.4,3.7-13.7V44.5h4v46.8h-3.4l-0.7-6.5h-0.2c-2.9,4.9-8,7.3-15.4,7.3c-10.1,0-15.2-5.7-15.2-17.1V44.5H494.7z"/>
	<path class="st0" d="M555.2,43.6c6.2,0,10.9,2.1,14.1,6.2c3.2,4.1,4.7,10.1,4.7,18.1c0,7.8-1.7,13.8-5,18c-3.3,4.2-8,6.3-14,6.3
		c-3.2,0-6-0.7-8.6-2.1s-4.5-3.3-6-5.9h-0.4l-1.1,7.1h-2.5v-67h4.1v16.8c0,2.5-0.1,4.9-0.2,7l-0.1,3.7h0.3c1.7-2.8,3.7-4.9,6.1-6.2
		C549,44.3,551.9,43.6,555.2,43.6z M555.1,47.5c-5.2,0-9,1.6-11.3,4.7c-2.3,3.2-3.4,8.4-3.4,15.6v0.7c0,7.1,1.2,12.1,3.5,15.2
		c2.4,3.1,6,4.6,11,4.6c4.9,0,8.5-1.8,11-5.4s3.7-8.7,3.7-15.3C569.7,54.2,564.9,47.5,555.1,47.5z"/>
	<path class="st0" d="M616.2,75.1c0,5.3-1.8,9.4-5.5,12.5c-3.7,3.1-8.5,4.6-14.6,4.6c-7.3,0-12.9-0.8-16.8-2.5v-4.4
		c4.3,1.9,9.8,2.9,16.5,2.9c4.9,0,8.8-1.2,11.7-3.6s4.3-5.5,4.3-9.3c0-2.4-0.5-4.4-1.4-5.9c-1-1.6-2.5-3-4.7-4.3
		c-2.2-1.3-5.3-2.7-9.5-4.2c-6.1-2.2-10.3-4.6-12.7-7.2c-2.3-2.6-3.5-6-3.5-10.3c0-4.7,1.8-8.6,5.3-11.5c3.5-3,8-4.5,13.5-4.5
		c5.6,0,10.9,1.1,15.8,3.4l-1.5,3.8c-5-2.2-9.7-3.3-14.2-3.3c-4.4,0-7.9,1.1-10.6,3.2c-2.6,2.2-3.9,5.1-3.9,8.8
		c0,2.3,0.4,4.2,1.2,5.7c0.8,1.5,2.1,2.8,3.9,4c1.8,1.2,5,2.6,9.4,4.3c4.7,1.7,8.2,3.3,10.5,4.9c2.3,1.6,4.1,3.4,5.1,5.4
		C615.6,69.8,616.2,72.2,616.2,75.1z"/>
	<path class="st0" d="M627.1,44.5v30.3c0,4.7,0.9,8.1,2.8,10.3c1.9,2.1,4.8,3.2,8.8,3.2c5.3,0,9.2-1.4,11.7-4.2
		c2.5-2.8,3.7-7.4,3.7-13.7V44.5h4v46.8h-3.4l-0.7-6.5h-0.2c-2.9,4.9-8,7.3-15.4,7.3c-10.1,0-15.2-5.7-15.2-17.1V44.5H627.1z"/>
	<path class="st0" d="M687.6,43.6c6.2,0,10.9,2.1,14.1,6.2c3.2,4.1,4.7,10.1,4.7,18.1c0,7.8-1.7,13.8-5,18c-3.3,4.2-8,6.3-14,6.3
		c-3.2,0-6-0.7-8.6-2.1s-4.5-3.3-6-5.9h-0.4l-1.1,7.1h-2.5v-67h4.1v16.8c0,2.5-0.1,4.9-0.2,7l-0.1,3.7h0.3c1.7-2.8,3.7-4.9,6.1-6.2
		C681.4,44.3,684.3,43.6,687.6,43.6z M687.6,47.5c-5.2,0-9,1.6-11.3,4.7c-2.3,3.2-3.4,8.4-3.4,15.6v0.7c0,7.1,1.2,12.1,3.5,15.2
		c2.4,3.1,6,4.6,11,4.6c4.9,0,8.5-1.8,11-5.4s3.7-8.7,3.7-15.3C702.1,54.2,697.3,47.5,687.6,47.5z"/>
	<path class="st0" d="M732.7,58.4h17.8v3.5h-17.8v18.6h-3.4V61.9h-17.7v-3.5h17.7V39.7h3.4V58.4z"/>
</g>
<g>
	<g>
		<path class="st1" d="M154.6,53c-3.3-0.9-4.3-2.2-4.4-5.5c-1.3-26-25.7-44.8-51.2-39.9c-13.8,2.7-23.6,10.6-30.6,22.7
			c-0.7,0-0.8,0.1-1,0c-17.8-6.9-29.3-1.4-34.9,16.5c-0.4,1.2-1.8,2.4-2.9,3C15.6,57.1,8.9,70.9,12.2,85.7
			c1.9,8.5,6.9,15.5,13.9,19.9v-8.2c-4.2-3.8-7.1-9.1-8.1-15.4c-1.8-11.3,5.5-23.2,16.9-27.3c1.3-0.5,2.5-0.9,3.9-1.4
			c-0.4-8.5,2.5-15.1,10.6-18.4c8.4-3.4,14.9,0.4,21,6.7c9.1-22.1,24.3-32.8,48.3-26.3c9,2.4,15.6,8.6,20.3,16.5
			c4.8,8,5.4,16.9,4.4,26.1c1.6,0.1,2.8,0.2,4,0.3c12.8,0.5,22.5,10.7,22.3,23.5c-0.2,12.2-10.1,21.9-22.8,21.9
			c-14.9,0-29.9,0-44.8,0v6.8c15.1,0,30.2-0.1,45.4-0.2c14.8-0.1,26.8-11.3,28.4-25.5C177.7,70,169.1,56.9,154.6,53z"/>
	</g>
</g>
<g>
	<g>
		<polygon class="st2" points="55.1,70.5 55.1,85.2 79.7,85.2 79.7,109.8 94.5,109.8 94.5,70.5 		"/>
		<polygon class="st2" points="84.7,40.9 84.7,55.7 109.3,55.7 109.3,80.2 124.1,80.2 124.1,40.9 		"/>
		<polygon class="st2" points="64.9,131.3 33.7,131.3 33.7,100 64.9,100 		"/>
	</g>
</g>
</svg>
